<?xml version="1.0" standalone="no"?>
<!DOCTYPE svg PUBLIC "-//W3C//DTD SVG 20010904//EN"
 "http://www.w3.org/TR/2001/REC-SVG-20010904/DTD/svg10.dtd">
<svg version="1.0" xmlns="http://www.w3.org/2000/svg"
 width="70.000000pt" height="70.000000pt" viewBox="0 0 70.000000 70.000000"
 preserveAspectRatio="xMidYMid meet">
<metadata>
Created by potrace 1.11, written by Peter Selinger 2001-2013
</metadata>
<g transform="translate(0.000000,70.000000) scale(0.100000,-0.100000)"
fill="#000000" stroke="none">
<path d="M384 670 c-37 -15 -91 -88 -113 -155 -30 -92 -28 -99 22 -119 55 -21
53 -21 61 15 3 18 25 49 52 75 45 44 74 96 74 132 0 41 -52 69 -96 52z"/>
<path d="M408 357 c-20 -19 -48 -58 -61 -88 -13 -31 -37 -64 -52 -75 l-27 -21
32 -36 c18 -20 36 -37 40 -37 21 0 130 93 158 135 39 59 42 102 9 133 -32 30
-57 28 -99 -11z"/>
<path d="M217 358 c-12 -44 -7 -75 17 -97 20 -19 28 -21 45 -12 22 12 51 60
51 86 0 15 -32 32 -81 42 -21 4 -27 0 -32 -19z"/>
<path d="M196 119 c-33 -39 -33 -64 -1 -85 22 -15 30 -15 62 -3 58 22 64 42
23 84 -19 19 -39 35 -46 35 -7 0 -24 -14 -38 -31z"/>
</g>
</svg>
