<svg id="Layer_1" data-name="Layer 1" xmlns="http://www.w3.org/2000/svg" viewBox="0 0 150 150"><defs><style>.cls-1{fill:none;stroke-miterlimit:10;stroke-width:4px;}.cls-1,.cls-3{stroke:#fff;}.cls-2,.cls-3{fill:#fff;}</style></defs><line class="cls-1" x1="6.16" y1="40.5" x2="77.16" y2="92.5"/><line class="cls-2" x1="6.16" y1="40.5" x2="77.16" y2="92.5"/><line class="cls-1" x1="145.34" y1="40.29" x2="74.34" y2="92.29"/><line class="cls-2" x1="145.34" y1="40.29" x2="74.34" y2="92.29"/><path class="cls-3" d="M31.51,16.07l-2.24-.6,1.88-1.27h.27l1,6.82-.68.12L29,16.37l.54.71a5.4,5.4,0,0,0-1.63-.81,6.42,6.42,0,0,0-1.8-.24A4.58,4.58,0,0,0,23,17a3.14,3.14,0,0,0-1.1,2.5,3.29,3.29,0,0,0,.43,1.75,3.74,3.74,0,0,0,1.17,1.21,9.43,9.43,0,0,0,1.68.86c.63.25,1.29.5,2,.74s1.37.52,2.05.81a9.34,9.34,0,0,1,1.87,1.09,4.71,4.71,0,0,1,1.35,1.61,5.13,5.13,0,0,1,.51,2.4A5.81,5.81,0,0,1,32,33.31a5.89,5.89,0,0,1-2.58,2.09,9.45,9.45,0,0,1-3.81.72A14.87,14.87,0,0,1,23,35.91a12.11,12.11,0,0,1-2.41-.72l-1.35-5.35h.9l3.65,5.34-2.57-1.63a12.22,12.22,0,0,0,2.16,1,6.69,6.69,0,0,0,2,.3,8.41,8.41,0,0,0,2.91-.44A3.9,3.9,0,0,0,30.2,33a3.78,3.78,0,0,0,.65-2.26,3.44,3.44,0,0,0-.54-2,4.21,4.21,0,0,0-1.41-1.3,11,11,0,0,0-1.93-.9l-2.06-.76A17.71,17.71,0,0,1,23,25a7,7,0,0,1-1.56-1.07,4.29,4.29,0,0,1-1.05-1.49,5.29,5.29,0,0,1-.38-2.1,5.29,5.29,0,0,1,.8-2.93,5.18,5.18,0,0,1,2.27-1.92,8.28,8.28,0,0,1,3.48-.68,9.92,9.92,0,0,1,2.56.31A10.62,10.62,0,0,1,31.51,16.07Z"/><path class="cls-3" d="M47.63,34.73a13.47,13.47,0,0,0,2.33-.2,11.86,11.86,0,0,0,2.24-.61l-.71.58,2.15-4.16h.82L54,34.91a11.39,11.39,0,0,1-2.77.86,18.74,18.74,0,0,1-3.67.35,14.88,14.88,0,0,1-4.71-.71,10.58,10.58,0,0,1-3.66-2.07A9.26,9.26,0,0,1,36.76,30a11.17,11.17,0,0,1-.83-4.4,11,11,0,0,1,1.45-5.73,9.62,9.62,0,0,1,4.16-3.78,14.7,14.7,0,0,1,6.54-1.34,15,15,0,0,1,1.9.12,20.72,20.72,0,0,1,2.25.42l-.83.16,1.93-1.29h.28l.9,7.08-.71.14L51.29,16.8l.62.62a10,10,0,0,0-2.33-1,9.34,9.34,0,0,0-2.23-.26,11.62,11.62,0,0,0-3.82.58,7.23,7.23,0,0,0-2.75,1.67,7,7,0,0,0-1.65,2.64,10.4,10.4,0,0,0-.56,3.5,12.7,12.7,0,0,0,.68,4.31,9.18,9.18,0,0,0,1.9,3.17,8.16,8.16,0,0,0,2.88,2A9.61,9.61,0,0,0,47.63,34.73Z"/><path class="cls-3" d="M62.05,15.1V34.4l2.44.81v.6H57.13v-.6l2.45-.81V16.51l-2.45-.81v-.6Zm3.31,9.5a5,5,0,0,0,3.19-1,3.64,3.64,0,0,0,1.27-3,3.85,3.85,0,0,0-.58-2.16A3.6,3.6,0,0,0,67.33,17a11,11,0,0,0-3.6-.48H59.9L60,15.1h5.33a10.25,10.25,0,0,1,4.14.7,5,5,0,0,1,2.3,1.89,4.86,4.86,0,0,1,.73,2.62,4.68,4.68,0,0,1-2.34,4.16,7.79,7.79,0,0,1-2.84,1v-.11a4.23,4.23,0,0,1,1.67.39,3.07,3.07,0,0,1,1.12,1A8.77,8.77,0,0,1,71,28.67l1.49,4.09a6.31,6.31,0,0,0,.73,1.5,1.46,1.46,0,0,0,.78.58,4.88,4.88,0,0,0,1.09.1v.87a21.32,21.32,0,0,1-2.23.08,3.14,3.14,0,0,1-1.35-.3,2,2,0,0,1-.82-.81A8.66,8.66,0,0,1,70,33.29l-1.45-4.05a15.39,15.39,0,0,0-.8-1.92,2.39,2.39,0,0,0-.89-1,3,3,0,0,0-1.42-.28H60L59.9,24.6Z"/><path class="cls-3" d="M86.5,14.79a10.84,10.84,0,0,1,4.15.78,9.79,9.79,0,0,1,5.44,5.56,11.65,11.65,0,0,1,.76,4.29,11.76,11.76,0,0,1-.76,4.31A10.08,10.08,0,0,1,94,33.12a9.68,9.68,0,0,1-3.27,2.22,10.68,10.68,0,0,1-4.14.78,10.84,10.84,0,0,1-4.15-.78A9.77,9.77,0,0,1,77,29.77a11.63,11.63,0,0,1-.76-4.28A11.72,11.72,0,0,1,77,21.18a10.08,10.08,0,0,1,2.14-3.39,9.62,9.62,0,0,1,3.28-2.22A10.7,10.7,0,0,1,86.5,14.79Zm.15,19.91a7.29,7.29,0,0,0,4-1.08,7,7,0,0,0,2.59-3,11,11,0,0,0,.91-4.66,12.63,12.63,0,0,0-1-5.26,7.72,7.72,0,0,0-2.75-3.3,7.79,7.79,0,0,0-8-.07,6.94,6.94,0,0,0-2.6,3A11,11,0,0,0,78.88,25a12.45,12.45,0,0,0,1,5.25,7.56,7.56,0,0,0,2.75,3.31A7.19,7.19,0,0,0,86.65,34.7Z"/><path class="cls-3" d="M104.19,16.51v19.3H99.28v-.6l2.44-.81V16.51l-2.44-.81v-.6h7.35v.6Zm10,20.21h-.33L112,35.81h-9.39V34.36H114l-2.19.44,3-5.2.65.15Z"/><path class="cls-3" d="M122.25,16.51v19.3h-4.92v-.6l2.44-.81V16.51l-2.44-.81v-.6h7.36v.6Zm10,20.21h-.32l-1.84-.91h-9.4V34.36H132l-2.19.44,3-5.2.65.15Z"/></svg>