<svg id="Layer_1" data-name="Layer 1" xmlns="http://www.w3.org/2000/svg" width="429.68" height="230.5" viewBox="0 0 429.68 230.5"><defs><style>.cls-1,.cls-2{fill:none;stroke:#000;stroke-miterlimit:10;}.cls-1{stroke-width:0.75px;stroke-dasharray:2;}.cls-2{stroke-width:2px;}.cls-3{fill:#3d450e;}</style></defs><path class="cls-1" d="M72.36,124.41c9,9.92,23.14,22.07,40.24,21,28.39-1.78,37.08-38.26,60.83-33,21.41,4.71,25.69,36.85,44.92,32,8.67-2.17,8.72-8.93,28.17-20,10.06-5.73,16.92-9.54,26.44-10a35.9,35.9,0,0,1,9.83.54,29.21,29.21,0,0,1,9.62,4.28c4.4,2.86,14.24,4.94,38.44,1"/><path d="M309.13,164.4q10.74-14,14.91-23.25a2.08,2.08,0,0,1,.77-.94,2,2,0,0,1,1.11-.32,2.2,2.2,0,0,1,2.23,2.17,2.05,2.05,0,0,1-.17.8,89,89,0,0,1-7.14,12.74q-4.63,7-11.71,15.88c0,2.4,0,4.8.05,7.2s.06,5,.06,7.89-.07,5.68-.2,8.48-.37,5.47-.71,8a55.67,55.67,0,0,1-1.4,7,23,23,0,0,1-2.29,5.59,11.5,11.5,0,0,1-3.37,3.72,8.11,8.11,0,0,1-4.66,1.34,6.76,6.76,0,0,1-5.88-2.91q-2.06-2.92-2.06-8.29a38,38,0,0,1,.55-6.2,57.15,57.15,0,0,1,1.57-6.88,75.43,75.43,0,0,1,2.48-7.17q1.46-3.63,3.23-7.05a68.59,68.59,0,0,1,3.86-6.57,47.53,47.53,0,0,1,4.42-5.72q.06-4,.09-7.94c0-2.63.07-5,.14-7.25a12.73,12.73,0,0,1-4.08,3.42,10,10,0,0,1-4.72,1.26,8.39,8.39,0,0,1-3.62-.77,7.83,7.83,0,0,1-2.77-2.17,9.91,9.91,0,0,1-1.77-3.29,12.84,12.84,0,0,1-.63-4.11,19.17,19.17,0,0,1,1.51-7.86,18,18,0,0,1,3.86-5.68,16,16,0,0,1,5.17-3.43,14.52,14.52,0,0,1,5.45-1.14,10.88,10.88,0,0,1,3.26.46,13.65,13.65,0,0,1,2.54,1,8.47,8.47,0,0,1,1.63,1.08l.63.57a2.23,2.23,0,0,1,.63,1.55,2.12,2.12,0,0,1-.63,1.51,2,2,0,0,1-1.49.66,2.35,2.35,0,0,1-1.54-.63l-.6-.49a6.73,6.73,0,0,0-1-.66,7.1,7.1,0,0,0-1.43-.57,7.59,7.59,0,0,0-2-.22,10.69,10.69,0,0,0-3.77.77,11.5,11.5,0,0,0-3.83,2.42,13.59,13.59,0,0,0-3,4.26,14.84,14.84,0,0,0-1.2,6.26,7.46,7.46,0,0,0,1.2,4.42,4.24,4.24,0,0,0,3.71,1.69,5.59,5.59,0,0,0,2.55-.69,9,9,0,0,0,2.6-2.11,13.79,13.79,0,0,0,2.2-3.6,19.93,19.93,0,0,0,1.34-5.14,2.08,2.08,0,0,1,.74-1.34,2.23,2.23,0,0,1,1.49-.55,1.82,1.82,0,0,1,1.51.69,2.43,2.43,0,0,1,.54,1.54s0,.62-.05,1.74-.08,2.62-.12,4.49-.08,4-.14,6.48S309.16,161.66,309.13,164.4Zm-4.35,12.51a56.42,56.42,0,0,0-4.85,8.09,74.51,74.51,0,0,0-3.72,8.82,67.41,67.41,0,0,0-2.37,8.66A39.34,39.34,0,0,0,293,210a12.21,12.21,0,0,0,.37,3.37,5.57,5.57,0,0,0,.91,1.94,2.7,2.7,0,0,0,1.2.92,3.81,3.81,0,0,0,1.23.22,4,4,0,0,0,3.08-1.42,11.89,11.89,0,0,0,2.23-3.8,30.64,30.64,0,0,0,1.49-5.46c.38-2,.66-4.18.85-6.37s.33-4.37.4-6.54.12-4.17.12-6v-4.91C304.9,180.3,304.86,178.63,304.78,176.91Z"/><path d="M368.2,142.86c-.16.31-.47.95-.95,1.92s-1.08,2.08-1.82,3.34-1.61,2.57-2.6,3.94a26,26,0,0,1-3.32,3.77,18.08,18.08,0,0,1-3.94,2.83,9.44,9.44,0,0,1-4.45,1.11,7.86,7.86,0,0,1-5.58-2.11,12.36,12.36,0,0,1-3.28-5.31,16.9,16.9,0,0,1-4.63,5.17,9,9,0,0,1-9.19,1.14,8.18,8.18,0,0,1-2.92-2.17,9.89,9.89,0,0,1-1.85-3.29,12.3,12.3,0,0,1-.66-4.11,19.17,19.17,0,0,1,1.51-7.86,18.2,18.2,0,0,1,3.86-5.68,16,16,0,0,1,5.17-3.43A14.52,14.52,0,0,1,339,131a10.27,10.27,0,0,1,3.26.49,15.11,15.11,0,0,1,2.54,1.05,9.61,9.61,0,0,1,1.63,1.06l.63.54a2.38,2.38,0,0,1,.63,1.55,2.12,2.12,0,0,1-.63,1.51,2,2,0,0,1-1.49.66,2.09,2.09,0,0,1-1.54-.63c-.08-.08-.25-.22-.51-.43a6.6,6.6,0,0,0-1.09-.66,8.73,8.73,0,0,0-1.63-.6,8.22,8.22,0,0,0-2.14-.25,10.2,10.2,0,0,0-3.77.79,10.93,10.93,0,0,0-3.66,2.49,14,14,0,0,0-2.77,4.23,14.94,14.94,0,0,0-1.11,6,11,11,0,0,0,.23,2.2,6,6,0,0,0,.8,2,4.4,4.4,0,0,0,1.54,1.49,4.69,4.69,0,0,0,2.4.57,5.32,5.32,0,0,0,2.37-.69,8.61,8.61,0,0,0,2.57-2.11,15.31,15.31,0,0,0,2.23-3.6,18.05,18.05,0,0,0,1.4-5.14,2.08,2.08,0,0,1,.74-1.34,2.23,2.23,0,0,1,1.49-.55,1.88,1.88,0,0,1,1.4.63,2.22,2.22,0,0,1,.65,1.43c0,.72.12,1.74.23,3.06a19.05,19.05,0,0,0,.77,3.91,9.58,9.58,0,0,0,1.8,3.37,4.11,4.11,0,0,0,3.32,1.43,5.62,5.62,0,0,0,2.71-.74,13.23,13.23,0,0,0,2.63-2,21.72,21.72,0,0,0,2.45-2.79c.79-1,1.5-2.11,2.15-3.17s1.22-2.1,1.71-3.09.92-1.85,1.26-2.57a2.18,2.18,0,0,1,2-1.31,2,2,0,0,1,1.57.71,2.32,2.32,0,0,1,.6,1.51A2.05,2.05,0,0,1,368.2,142.86Zm-22-25a7.62,7.62,0,0,1-.66,3.14,8.37,8.37,0,0,1-4.39,4.37,8,8,0,0,1-3.23.66,7.62,7.62,0,0,1-3.14-.66,8.38,8.38,0,0,1-2.6-1.77,8.21,8.21,0,0,1-1.77-2.6,7.8,7.8,0,0,1,0-6.28,8.21,8.21,0,0,1,1.77-2.6,8.56,8.56,0,0,1,2.6-1.77,7.62,7.62,0,0,1,3.14-.66,8,8,0,0,1,3.23.66,8.41,8.41,0,0,1,2.62,1.77,8.21,8.21,0,0,1,1.77,2.6A7.66,7.66,0,0,1,346.2,117.84Zm-3.77,0a4.18,4.18,0,0,0-1.31-3.14,4.45,4.45,0,0,0-3.2-1.26,4.3,4.3,0,0,0-3.12,1.26,4.42,4.42,0,0,0,3.12,7.54,4.4,4.4,0,0,0,3.2-1.29A4.19,4.19,0,0,0,342.43,117.84Z"/><path d="M370.25,135.32a27.9,27.9,0,0,1-.57,2.89c-.23.89-.45,1.67-.65,2.34s-.4,1.21-.55,1.63a4,4,0,0,1-.28.68,2,2,0,0,1-2,1.32,2.22,2.22,0,0,1-1.49-.6,1.92,1.92,0,0,1-.68-1.52.9.9,0,0,1,.11-.51,4.3,4.3,0,0,0,.34-.69,13.22,13.22,0,0,0,.57-1.71c.23-.8.52-2,.86-3.71-.65,0-1.31,0-2-.06A6.25,6.25,0,0,1,362,135a3.06,3.06,0,0,1-2-3.14,9,9,0,0,1,.54-2.63A17.44,17.44,0,0,1,362,126a13.49,13.49,0,0,1,2.06-2.77,3.25,3.25,0,0,1,2.28-1.17,2.69,2.69,0,0,1,2.14,1,6.92,6.92,0,0,1,1.29,2.37,17.36,17.36,0,0,1,.66,3,21.73,21.73,0,0,1,.2,2.68c.64,0,1.28,0,1.91,0l1.8,0a7.59,7.59,0,0,1,5,1.43Q381,133.78,381,137a21.89,21.89,0,0,1-.17,2.74c-.11.95-.25,1.93-.4,2.94s-.28,2-.4,3a26.37,26.37,0,0,0-.17,2.91,8.74,8.74,0,0,0,.57,3.4,6.26,6.26,0,0,0,1.43,2.15,4.9,4.9,0,0,0,1.83,1.11,5.79,5.79,0,0,0,1.77.31,7.65,7.65,0,0,0,4.63-1.6,22,22,0,0,0,4-3.85,38.78,38.78,0,0,0,3.28-4.77q1.45-2.52,2.43-4.4a2.05,2.05,0,0,1,.8-.8,2.19,2.19,0,0,1,1.08-.29,2,2,0,0,1,1.6.66,2.18,2.18,0,0,1,.58,1.46,2.25,2.25,0,0,1-.23,1q-1.32,2.35-3.06,5.29a37.22,37.22,0,0,1-4,5.51,22.82,22.82,0,0,1-5,4.34,11.09,11.09,0,0,1-6.08,1.77,9.82,9.82,0,0,1-3.89-.77,9,9,0,0,1-3.17-2.22,11,11,0,0,1-2.14-3.6,13.82,13.82,0,0,1-.8-4.83,28.75,28.75,0,0,1,.57-5.69,27.24,27.24,0,0,0,.57-5.39,2.39,2.39,0,0,0-.48-1.63,3,3,0,0,0-2.15-.54h-1.74C371.65,135.27,371,135.28,370.25,135.32Zm-3.82-4.22c0-.27,0-.62,0-1.06s-.06-.87-.12-1.29a5.48,5.48,0,0,0-.23-1.08c-.09-.31-.2-.46-.31-.46s-.26.14-.43.43-.35.63-.54,1a13.65,13.65,0,0,0-.52,1.28c-.15.46-.26.84-.34,1.15Z"/><circle class="cls-2" cx="67.85" cy="119.24" r="4.5"/><path d="M159.72,24.6q-.42,3.79-.58,7.35c-.11,2.37-.16,4.18-.16,5.45,0,1.6,0,3.1.11,4.5s.14,2.63.21,3.7h-2.44a58.7,58.7,0,0,0-2-11.05,9.73,9.73,0,0,0-4.45-5.85q-3.18-1.8-9.85-1.8h-5.73V83.8a17.1,17.1,0,0,0,.8,6,4.54,4.54,0,0,0,3.13,2.7,29.2,29.2,0,0,0,6.78.9v2c-1.84-.13-4.17-.22-7-.25s-5.68-.05-8.58-.05c-3.18,0-6.16,0-8.95.05s-5,.12-6.73.25v-2a29.2,29.2,0,0,0,6.78-.9,4.56,4.56,0,0,0,3.13-2.7,17.14,17.14,0,0,0,.79-6V26.9h-5.72q-6.57,0-9.8,1.8a9.61,9.61,0,0,0-4.5,5.85,59.4,59.4,0,0,0-2,11.05H100.5c.14-1.07.22-2.3.26-3.7s0-2.9,0-4.5c0-1.27,0-3.08-.15-5.45s-.31-4.82-.59-7.35l9.7.2c3.49.07,7,.1,10.54.1h19.23q5.25,0,10.54-.1C153.61,24.73,156.83,24.67,159.72,24.6Z"/><path d="M194.26,24.6v2a19.34,19.34,0,0,0-5.46.75,3.83,3.83,0,0,0-2.48,2.4,17,17,0,0,0-.64,5.45V84.8a17,17,0,0,0,.64,5.4,3.7,3.7,0,0,0,2.48,2.4,22.87,22.87,0,0,0,5.46.8v2c-1.62-.13-3.65-.22-6.09-.25s-4.89-.05-7.36-.05c-2.76,0-5.34,0-7.74.05s-4.34.12-5.83.25v-2a22.87,22.87,0,0,0,5.46-.8,3.7,3.7,0,0,0,2.49-2.4,17.33,17.33,0,0,0,.64-5.4V35.2a17.25,17.25,0,0,0-.64-5.45,3.82,3.82,0,0,0-2.49-2.4,19.34,19.34,0,0,0-5.46-.75v-2c1.49.07,3.43.13,5.83.2s5,.1,7.74.1q3.7,0,7.36-.1C190.61,24.73,192.64,24.67,194.26,24.6Z"/><path d="M232.08,24.6q19,0,28.19,8.95t9.22,25.65a38.8,38.8,0,0,1-4.51,19A31,31,0,0,1,251.9,90.9q-8.58,4.5-20.77,4.5-2.32,0-6.89-.15t-7.94-.15c-2.48,0-4.91,0-7.31.05s-4.35.12-5.83.25v-2a22.87,22.87,0,0,0,5.46-.8,3.74,3.74,0,0,0,2.49-2.4,17.38,17.38,0,0,0,.63-5.4V35.2a17.31,17.31,0,0,0-.63-5.45,3.87,3.87,0,0,0-2.49-2.4,19.34,19.34,0,0,0-5.46-.75v-2l5.83.25c2.4.1,4.76.12,7.1,0s5.26-.13,8.37-.2S230.11,24.6,232.08,24.6Zm-2.64,1.8q-4.87,0-6.36,1.7T221.6,35V85q0,5.2,1.53,6.9t6.41,1.7q11.55,0,17.91-3.95a20.89,20.89,0,0,0,8.9-11.55,59,59,0,0,0,2.54-18.5q0-16.8-6.52-25T229.44,26.4Z"/><path d="M331.68,24.6c-.28,2.33-.48,4.6-.58,6.8s-.16,3.87-.16,5,0,2.35.1,3.45.14,2,.22,2.75h-2.44a45.81,45.81,0,0,0-1.8-9.35,8.15,8.15,0,0,0-4-4.9c-1.87-1-4.67-1.45-8.42-1.45h-8.79a20.33,20.33,0,0,0-5.46.55,3.58,3.58,0,0,0-2.49,2.3,17.31,17.31,0,0,0-.63,5.45V84.8a17.38,17.38,0,0,0,.63,5.4,3.59,3.59,0,0,0,2.49,2.35,20.33,20.33,0,0,0,5.46.55h7.73q6.68,0,10.12-1.7a10.07,10.07,0,0,0,5-5.55,42,42,0,0,0,2.28-10.45h2.43a65.26,65.26,0,0,0-.31,7.2c0,1.26.05,3.08.16,5.45s.3,4.81.58,7.35q-5.4-.2-12.19-.25t-12.07-.05h-8.43c-3.49,0-7.22,0-11.17.05s-7.67.12-11.13.25v-2a22.87,22.87,0,0,0,5.46-.8,3.74,3.74,0,0,0,2.49-2.4,17.38,17.38,0,0,0,.63-5.4V35.2a17.31,17.31,0,0,0-.63-5.45,3.87,3.87,0,0,0-2.49-2.4,19.34,19.34,0,0,0-5.46-.75v-2l11.13.2c3.95.07,7.68.1,11.17.1h8.43c3.24,0,6.94,0,11.07,0S328.43,24.73,331.68,24.6ZM313.46,58.8v2H294.07v-2Zm3.07-13.2c-.28,3.8-.41,6.7-.37,8.7s0,3.83,0,5.5,0,3.5.11,5.5.24,4.9.53,8.7h-2.44q-.42-3.21-1-6.25a9.32,9.32,0,0,0-2.54-5c-1.31-1.3-3.51-2-6.62-2v-2q4.67,0,6.51-2.3a11.55,11.55,0,0,0,2.39-5.4q.53-3.1.95-5.5Z"/><path d="M409.87,24.6v2a13.93,13.93,0,0,0-5.46,1,4.7,4.7,0,0,0-2.49,2.9,19.9,19.9,0,0,0-.63,5.7V95.9h-2.44L354.35,31V83.8a18.38,18.38,0,0,0,.69,5.65,4.64,4.64,0,0,0,2.76,2.9A19.43,19.43,0,0,0,364,93.4v2c-1.27-.13-2.93-.22-5-.25s-4-.05-5.82-.05-3.55,0-5.35.05-3.31.12-4.51.25v-2a15.63,15.63,0,0,0,5.46-1.05,4.5,4.5,0,0,0,2.49-2.9,20,20,0,0,0,.64-5.65V35.2a17.25,17.25,0,0,0-.64-5.45,3.82,3.82,0,0,0-2.49-2.4,19.34,19.34,0,0,0-5.46-.75v-2c1.2.07,2.71.13,4.51.2s3.58.1,5.35.1c1.55,0,3,0,4.45-.1s2.68-.13,3.81-.2L398.85,79V36.2a18.26,18.26,0,0,0-.69-5.7,4.77,4.77,0,0,0-2.75-2.9,17.47,17.47,0,0,0-6.2-1v-2c1.27.07,3,.13,5,.2s4,.1,5.78.1,3.65,0,5.45-.1S408.74,24.67,409.87,24.6Z"/><path class="cls-3" d="M57.46,102.32a43.24,43.24,0,0,1-8.85,9,65.13,65.13,0,0,1-11.9,7.73,10.12,10.12,0,0,0-1-1.52c-.22-.28-.47-.55-1-1.11-1.17-1.31-1.67-1.74-3.23-3.32-2-2-3.74-3.94-3.74-3.94s8-4.79,10-10.31c0-.07,0,0,.18-.49.45-1.27,1.64-4.6,2.31-6a19.9,19.9,0,0,1,1.66-3,22.79,22.79,0,0,1,3.44-4c3.11-2.82,6.77-6.14,10.69-5.37,3.57.71,6.07,4.59,6.79,7.82C64,93,60.8,97.58,57.46,102.32Z"/><path class="cls-3" d="M27,128.16c-1.14.48-6.78,2.58-10.54-.48a6.06,6.06,0,0,1-2-2.67c-1.18-3.64,2.7-9.09,9.67-13.31l9.38,10.79A14.22,14.22,0,0,1,27,128.16Z"/><path class="cls-3" d="M33.7,51.13a43.38,43.38,0,0,0-5.43,11.38,66,66,0,0,0-3.2,13.83,10,10,0,0,1,1.76.4c.35.12.69.26,1.38.53,1.63.66,2.21,1,4.23,1.9,2.54,1.16,5,2.18,5,2.18s1.77-9.13,6.28-12.92l.39-.32c1-.86,3.76-3.12,4.9-4.25a19.57,19.57,0,0,0,2.21-2.57,22.68,22.68,0,0,0,2.54-4.58c1.59-3.9,3.46-8.48,1.4-11.88-1.89-3.12-6.39-4.14-9.67-3.72C40.18,41.8,37,46.36,33.7,51.13Z"/><path class="cls-3" d="M19.84,88.6c-.05,1.24-.1,7.26,4.06,9.74a6,6,0,0,0,3.19,1c3.82-.14,7.62-5.65,9.2-13.64L22.94,80.54A14.22,14.22,0,0,0,19.84,88.6Z"/></svg>
