<svg id="Layer_1" data-name="Layer 1" xmlns="http://www.w3.org/2000/svg" width="501.68" height="288.5" viewBox="0 0 501.68 288.5"><defs><style>.cls-1,.cls-2,.cls-3{fill:none;stroke:#000;stroke-miterlimit:10;}.cls-1{stroke-width:0.75px;stroke-dasharray:2;}.cls-2{stroke-width:2px;}.cls-3{stroke-width:4px;}</style></defs><path class="cls-1" d="M22.65,14.31c24.2,3.13,42.45,4.17,49.61,4.11,7.42-.07,14-.65,14-.65,2-.17,4-.38,6.27-.66,16.6-2.1,22.85-5.71,42.15-3.75,23.2,2.36,32.69,9.1,57.56,7.08,2-.16,9.08-1.41,23.27-4.05,38.76-7.2,54.07-10.59,69-3.62.48.22.79.38,1,.51.48.25.83.45.84.46,14.48,8.29,39.41,8.57,39.41,8.57,50,7.19,65.09,20.36,69.68,31,4.27,9.88.95,14.08,3.67,34,5.12,37.49,20.75,42.16,22.49,68,2,29.75-16.67,53.74-27,67a136.71,136.71,0,0,1-53,41"/><circle class="cls-2" cx="15.65" cy="12.31" r="4.5"/><circle class="cls-3" cx="333.15" cy="267.81" r="6"/></svg>
